<?xml version="1.0" encoding="UTF-8"?>
<svg width="887px" height="221px" viewBox="0 0 887 221" version="1.1" xmlns="http://www.w3.org/2000/svg" xmlns:xlink="http://www.w3.org/1999/xlink">
    <!-- Generator: Sketch 64 (93537) - https://sketch.com -->
    <title>Group</title>
    <desc>Created with Sketch.</desc>
    <g id="Page-1" stroke="none" stroke-width="1" fill="none" fill-rule="evenodd">
        <g id="Group" fill-rule="nonzero">
            <polygon id="Path" fill="#E6E6E6" points="191.188 0 63.729 0 0 110.382 63.729 220.765 191.188 220.765 254.917 110.382"></polygon>
            <polygon id="Path" fill="#FFFFFF" points="70.88252 208.37477 184.03452 208.37477 240.61052 110.38231 184.03452 12.38985 70.88252 12.38985 14.30652 110.38231"></polygon>
            <circle id="Oval" fill="#E2E2E2" cx="69.51589" cy="81.14999" r="5.22006"></circle>
            <circle id="Oval" fill="#E2E2E2" cx="69.51589" cy="110.38231" r="5.22006"></circle>
            <circle id="Oval" fill="#E2E2E2" cx="69.51589" cy="139.61462" r="5.22006"></circle>
            <rect id="Rectangle" fill="#E2E2E2" x="91.44012" y="76.97395" width="99.18106" height="8.35209"></rect>
            <rect id="Rectangle" fill="#E2E2E2" x="91.44012" y="106.20626" width="99.18106" height="8.35209"></rect>
            <rect id="Rectangle" fill="#E2E2E2" x="91.44012" y="135.43858" width="99.18106" height="8.35209"></rect>
            <polygon id="Path" fill="#E6E6E6" points="822.386 0 694.927 0 631.198 110.382 694.927 220.765 822.386 220.765 886.115 110.382"></polygon>
            <polygon id="Path" fill="#FFFFFF" points="702.08032 208.37477 815.23232 208.37477 871.80832 110.38231 815.23232 12.38985 702.08032 12.38985 645.50432 110.38231"></polygon>
            <circle id="Oval" fill="#E2E2E2" cx="700.71369" cy="81.14999" r="5.22006"></circle>
            <circle id="Oval" fill="#E2E2E2" cx="700.71369" cy="110.38231" r="5.22006"></circle>
            <circle id="Oval" fill="#E2E2E2" cx="700.71369" cy="139.61462" r="5.22006"></circle>
            <rect id="Rectangle" fill="#E2E2E2" x="722.63792" y="76.97395" width="99.18106" height="8.35209"></rect>
            <rect id="Rectangle" fill="#E2E2E2" x="722.63792" y="106.20626" width="99.18106" height="8.35209"></rect>
            <rect id="Rectangle" fill="#E2E2E2" x="722.63792" y="135.43858" width="99.18106" height="8.35209"></rect>
            <polygon id="Path" fill="#E6E6E6" points="503.729 1.072 377.508 1.072 314.398 110.382 377.508 219.693 503.729 219.693 566.84 110.382"></polygon>
            <polygon id="Path" fill="#FFFFFF" points="384.59227 207.42313 496.64541 207.42313 552.67198 110.38231 496.64541 13.34149 384.59227 13.34149 328.5657 110.38231"></polygon>
            <circle id="Oval" fill="#4299E1" cx="383.23891" cy="81.43388" r="5.16936"></circle>
            <circle id="Oval" fill="#4299E1" cx="383.23891" cy="110.38231" r="5.16936"></circle>
            <circle id="Oval" fill="#4299E1" cx="383.23891" cy="139.33074" r="5.16936"></circle>
            <rect id="Rectangle" fill="#4299E1" x="404.95023" y="77.29839" width="98.21789" height="8.27098"></rect>
            <rect id="Rectangle" fill="#4299E1" x="404.95023" y="106.24682" width="98.21789" height="8.27098"></rect>
            <rect id="Rectangle" fill="#4299E1" x="404.95023" y="135.19525" width="98.21789" height="8.27098"></rect>
        </g>
    </g>
</svg>