<?xml version="1.0" encoding="UTF-8"?>
<svg width="1000px" height="160px" viewBox="0 0 1000 160" version="1.1" xmlns="http://www.w3.org/2000/svg" xmlns:xlink="http://www.w3.org/1999/xlink">
    <!-- Generator: Sketch 64 (93537) - https://sketch.com -->
    <title>Siemens_AG_logo</title>
    <desc>Created with Sketch.</desc>
    <g id="Page-1" stroke="none" stroke-width="1" fill="none" fill-rule="evenodd">
        <g id="Siemens_AG_logo" fill="#FFFFFF">
            <path d="M988.306904,5.58311523 L988.306904,35.3644685 C972.877971,29.5399167 959.141233,26.5949446 947.118637,26.5949446 C939.997358,26.5949446 934.326589,27.9136327 930.062915,30.4631512 C925.798736,33.0346448 923.62271,36.1998308 923.62271,39.9362291 C923.62271,44.9034433 928.436126,49.3209157 938.128899,53.2775135 L966.130185,66.9044185 C988.768788,77.6961845 999.999944,92.0261678 999.999944,110.026984 C999.999944,124.994668 994.043584,136.929363 982.020988,145.764741 C970.086278,154.688654 954.019716,159.106054 934.019022,159.106054 C924.787614,159.106054 916.501936,158.710528 909.138986,157.875209 C901.776037,157.084302 893.31408,155.457499 883.928889,153.127747 L883.928889,121.961824 C901.138394,127.786274 916.809517,130.731304 930.919748,130.731304 C947.75576,130.731304 956.129831,125.851904 956.129831,116.005435 C956.129831,111.104117 952.701014,107.147996 945.734037,104.048678 L914.633477,90.795323 C903.160637,85.6083563 894.632783,79.3224685 889.049901,71.8716327 C883.555411,64.3549001 880.763703,55.7391598 880.763703,45.8926035 C880.763703,32.1113959 886.566294,21.0120485 898.03912,12.5720669 C909.600351,4.1979967 924.941917,0.000233510528 944.019362,0.000233510528 C950.217407,0.000233510528 957.360647,0.549485009 965.273352,1.5606061 C973.251464,2.63763853 980.921994,3.95634104 988.306904,5.58311523 L988.306904,5.58311523 Z" id="path4166"></path>
            <path d="M107.477275,5.58311523 L107.477275,35.3644685 C92.0478374,29.5399167 78.3330603,26.5949446 66.3104783,26.5949446 C59.167224,26.5949446 53.5189357,27.9136327 49.2547565,30.4631512 C44.9910819,33.0346448 42.8150418,36.1998308 42.8150418,39.9362291 C42.8150418,44.9034433 47.6943839,49.3209157 57.3871566,53.2775135 L85.3884424,66.9044185 C107.938655,77.6961845 119.19229,92.0261678 119.19229,110.026984 C119.19229,124.994668 113.213955,136.929363 101.279245,145.764741 C89.2566489,154.688654 73.2779595,159.106054 53.2113687,159.106054 C43.9799608,159.106054 35.6718019,158.710528 28.3088528,157.875209 C20.9459037,157.084302 12.5718334,155.457499 3.12123545,153.127747 L3.12123545,121.961824 C20.3966522,127.786274 36.0677602,130.731304 50.0901188,130.731304 C66.9261459,130.731304 75.3002161,125.851904 75.3002161,116.005435 C75.3002161,111.104117 71.8933601,107.147996 64.9917758,104.048678 L33.8917345,90.795323 C22.3305031,85.6083563 13.8026494,79.3224685 8.3081589,71.8716327 C2.72527718,64.3549001 0,55.7391598 0,45.8926035 C0,32.1113959 5.75864046,21.0120485 17.2973775,12.5720669 C28.7707224,4.1979967 44.1337443,0.000233510528 63.2117084,0.000233510528 C69.4756643,0.000233510528 76.531032,0.549485009 84.5311048,1.5606061 C92.4438101,2.63763853 100.114341,3.95634104 107.477275,5.58311523 Z" id="path4168"></path>
            <polygon id="polygon4170" points="185.173233 2.79142091 185.173233 156.314863 139.566481 156.314863 139.566481 2.79142091"></polygon>
            <polygon id="polygon4172" points="333.487274 156.314863 220.449581 156.314863 220.449581 2.79142091 332.102665 2.79142091 332.102665 31.1666972 264.341156 31.1666972 264.341156 65.2117151 323.11344 65.2117151 323.11344 90.7952939 264.341156 90.7952939 264.341156 126.533519 333.487274 126.533519"></polygon>
            <polygon id="polygon4174" points="358.697365 156.314863 358.697365 2.79142091 414.369863 2.79142091 452.371488 96.7736346 492.131719 2.79142091 545.012519 2.79142091 545.012519 156.314863 502.437088 156.314863 502.437088 55.0575793 458.261949 157.721441 431.975338 157.721441 389.489829 55.0575793 389.489829 156.314863"></polygon>
            <polygon id="polygon4176" points="693.262694 156.314863 580.225512 156.314863 580.225512 2.79142091 691.878085 2.79142091 691.878085 31.1666972 624.486997 31.1666972 624.486997 65.2117151 683.25877 65.2117151 683.25877 90.7952939 624.486997 90.7952939 624.486997 126.533519 693.262694 126.533519"></polygon>
            <polygon id="polygon4178" points="851.905095 156.314863 803.530658 156.314863 749.244812 57.848766 749.244812 156.314863 718.471763 156.314863 718.471763 2.79142091 768.256354 2.79142091 821.137155 99.5653322 821.137155 2.79142091 851.905095 2.79142091"></polygon>
        </g>
    </g>
</svg>